<?xml version="1.0" encoding="utf-8"?>
<!-- Generator: Adobe Illustrator 21.0.0, SVG Export Plug-In . SVG Version: 6.00 Build 0)  -->
<svg version="1.1" id="Layer_1" xmlns="http://www.w3.org/2000/svg" xmlns:xlink="http://www.w3.org/1999/xlink" x="0px" y="0px"
	 viewBox="0 0 459 110" style="enable-background:new 0 0 459 110;" xml:space="preserve">
<style type="text/css">
	.st0{filter:url(#Adobe_OpacityMaskFilter);}
	.st1{fill:#FFFFFF;}
	.st2{mask:url(#mask-2);}
	.st3{filter:url(#Adobe_OpacityMaskFilter_1_);}
	.st4{mask:url(#mask-4);fill:#00DCAD;}
	.st5{filter:url(#Adobe_OpacityMaskFilter_2_);}
	.st6{mask:url(#mask-6);fill:#00DCAD;}
	.st7{filter:url(#Adobe_OpacityMaskFilter_3_);}
	.st8{mask:url(#mask-8);fill:#00DCAD;}
</style>
<title>Page 1</title>
<desc>Created with Sketch.</desc>
<g id="Page-1">
	<g transform="translate(0.000000, -1.000000)">
		<g id="Group-3" transform="translate(0.000000, 13.118000)">
			<g id="Clip-2">
			</g>
			<defs>
				<filter id="Adobe_OpacityMaskFilter" filterUnits="userSpaceOnUse" x="0" y="0.5" width="31.9" height="69.3">
					<feColorMatrix  type="matrix" values="1 0 0 0 0  0 1 0 0 0  0 0 1 0 0  0 0 0 1 0"/>
				</filter>
			</defs>
			<mask maskUnits="userSpaceOnUse" x="0" y="0.5" width="31.9" height="69.3" id="mask-2">
				<g class="st0">
					<polygon id="path-1" class="st1" points="0,0.5 0,69.8 31.9,69.8 31.9,0.5 					"/>
				</g>
			</mask>
			<path id="Fill-1" class="st2" d="M31.9,68.5c0,0.6-0.2,0.9-0.5,1.1c-0.3,0.1-1,0.2-1.9,0.2c-2.6,0-5.1-0.5-7.5-1.6
				c-2.4-1.1-4.6-2.5-6.4-4.4c-1.9-1.8-3.4-4.1-4.5-6.7c-1.1-2.6-1.7-5.5-1.7-8.7V23.2c0-0.8-0.4-1.3-1.3-1.3H1.2
				c-0.8,0-1.2-0.4-1.2-1.3l0.3-4.4L14.6,0.9l0.9-0.4h3.9c0.8,0,1.3,0.4,1.3,1.3v8.8c0,0.8,0.4,1.3,1.2,1.3h8.8
				c0.8,0,1.3,0.4,1.3,1.3v7.6c0,0.8-0.4,1.3-1.3,1.3h-8.8c-0.8,0-1.2,0.4-1.2,1.3v25.2c0,2.5,0.9,5,2.8,7.3
				c0.6,0.7,1.5,1.3,2.8,1.8c1.3,0.5,2.8,1.2,4.8,2.1c0.7,0.3,1,0.7,1,1.3V68.5z"/>
		</g>
		<path id="Fill-4" d="M72.6,36.1c0,0.8-0.3,1.3-0.8,1.3c-0.6,0-1.4-0.1-2.3-0.4c-1-0.3-2.2-0.4-3.8-0.4c-3.5,0-6.3,1-8.3,3
			c-2,2-3,4.7-3,8.3v32.8c0,0.8-0.4,1.3-1.3,1.3h-8.8c-0.8,0-1.2-0.4-1.2-1.3V26.2c0-0.8,0.4-1.3,1.2-1.3H52c0.8,0,1.3,0.4,1.3,1.3
			v4c0,1,0.4,1.5,1.1,1.5c0.3,0,0.8-0.4,1.4-1.1c0.6-0.7,1.4-1.5,2.4-2.3c1-0.8,2.1-1.6,3.4-2.3c1.3-0.7,2.8-1.1,4.5-1.1
			c2.4,0,4.1,0.1,5.1,0.3c1,0.2,1.4,0.6,1.4,1.4V36.1z"/>
		<path id="Fill-6" d="M91.8,80.5c0,0.8-0.4,1.3-1.3,1.3h-8.8c-0.8,0-1.3-0.4-1.3-1.3V26.2c0-0.8,0.4-1.3,1.3-1.3h8.8
			c0.8,0,1.3,0.4,1.3,1.3V80.5z"/>
		<path id="Fill-8" d="M150.1,60.3c0,3.1-0.5,6-1.6,8.6c-1,2.6-2.5,4.9-4.4,6.7c-1.9,1.9-4.1,3.4-6.6,4.5c-2.5,1.1-5.2,1.6-8.1,1.6
			c-1.8,0-3.4-0.2-4.8-0.6c-1.4-0.4-2.6-0.9-3.6-1.5c-1-0.5-1.8-1-2.4-1.4c-0.6-0.4-1.1-0.6-1.3-0.6c-0.7,0-1,0.5-1,1.4v29.9
			c0,0.8-0.4,1.3-1.2,1.3h-8.8c-0.8,0-1.2-0.4-1.2-1.3V26.2c0-0.8,0.4-1.3,1.2-1.3h7.5c0.8,0,1.3,0.4,1.3,1.3v1.5
			c0,0.9,0.3,1.4,0.9,1.4c0.4,0,1-0.2,1.6-0.6c0.7-0.4,1.5-0.9,2.5-1.4c1-0.5,2.2-1,3.6-1.5c1.4-0.4,3-0.6,4.8-0.6
			c3.2,0,6.1,0.5,8.7,1.6c2.6,1.1,4.9,2.5,6.8,4.4c1.9,1.9,3.4,4.1,4.5,6.7c1.1,2.6,1.6,5.5,1.6,8.7V60.3z M138.8,46.4
			c0-1.5-0.3-3-0.9-4.4c-0.6-1.4-1.4-2.6-2.4-3.7c-1-1.1-2.2-1.9-3.6-2.5c-1.4-0.6-2.9-0.9-4.4-0.9c-3.2,0-5.8,1.1-8,3.3
			c-2.2,2.2-3.3,4.9-3.3,8v13.9c0,3.1,1.1,5.8,3.3,8c2.2,2.2,4.8,3.3,8,3.3c1.6,0,3.1-0.3,4.4-0.9c1.4-0.6,2.6-1.4,3.6-2.5
			c1-1.1,1.8-2.3,2.4-3.7c0.6-1.4,0.9-2.8,0.9-4.4V46.4z"/>
		<path id="Fill-10" d="M172.6,80.5c0,0.8-0.4,1.3-1.3,1.3h-8.8c-0.8,0-1.3-0.4-1.3-1.3V3.5c0-0.8,0.4-1.3,1.3-1.3h8.8
			c0.8,0,1.3,0.4,1.3,1.3V80.5z"/>
		<path id="Fill-12" d="M229,54c0,0.8-0.4,1.3-1.3,1.3h-31.3c-0.8,0-1.3,0.4-1.3,1.3v5c0,1.5,0.3,3,0.9,4.4c0.6,1.4,1.4,2.6,2.4,3.7
			c1,1.1,2.2,1.9,3.6,2.5c1.4,0.6,2.9,0.9,4.4,0.9c1.5,0,2.9-0.2,4.1-0.8c1.2-0.5,2.1-1.2,2.8-2c1.4-1.7,2.4-3,3.1-3.9
			c0.6-0.9,1.1-1.4,1.6-1.4c0.2,0,0.4,0.1,0.8,0.3l7.9,4c0.5,0.3,0.8,0.6,0.8,0.9c0,0.4-0.4,1.4-1.2,2.8c-0.8,1.5-2.2,3.1-4.1,4.9
			c-3.8,3.5-9,5.3-15.7,5.3c-3.4,0-6.5-0.5-9.3-1.5c-2.8-1-5.1-2.5-7.1-4.4c-2-1.9-3.5-4.2-4.6-6.8c-1.1-2.6-1.6-5.6-1.6-8.8V45.2
			c0-2.9,0.6-5.6,1.8-8.2c1.2-2.6,2.8-4.9,4.8-6.8c2-1.9,4.4-3.5,7.1-4.7c2.7-1.2,5.7-1.8,8.8-1.8c3.1,0,6,0.6,8.8,1.8
			c2.8,1.2,5.2,2.7,7.2,4.7c2,1.9,3.7,4.2,4.8,6.8c1.2,2.6,1.8,5.3,1.8,8.2V54z M216.4,46.4c0.6,0,0.9-0.2,1.1-0.5
			c0.1-0.3,0.2-0.9,0.2-1.6c0-1.3-0.3-2.7-0.9-3.9c-0.6-1.3-1.5-2.4-2.5-3.3c-1-1-2.2-1.7-3.6-2.3c-1.3-0.6-2.8-0.9-4.3-0.9
			c-1.5,0-2.9,0.3-4.3,0.9c-1.4,0.6-2.6,1.4-3.6,2.4c-1,1-1.8,2.2-2.4,3.5c-0.6,1.3-0.9,2.6-0.9,4c0,0.7,0.1,1.2,0.2,1.5
			c0.1,0.3,0.5,0.4,1.1,0.4H216.4z"/>
		<path id="Fill-14" d="M314.1,80.5c0,0.8-0.4,1.3-1.3,1.3h-8.8c-0.8,0-1.3-0.4-1.3-1.3V46.4c0-1.5-0.3-3-0.8-4.4
			c-0.5-1.4-1.3-2.6-2.3-3.7c-1-1-2-1.9-3.3-2.5c-1.2-0.6-2.4-0.9-3.7-0.9c-1.3,0-2.5,0.3-3.7,0.9c-1.2,0.6-2.3,1.5-3.2,2.5
			c-0.9,1-1.7,2.3-2.3,3.6c-0.6,1.3-0.9,2.8-0.9,4.3v34.1c0,0.8-0.4,1.3-1.3,1.3h-8.8c-0.8,0-1.3-0.4-1.3-1.3V46.4
			c0-1.5-0.3-3-0.8-4.4c-0.5-1.4-1.3-2.6-2.3-3.7c-1-1-2-1.9-3.3-2.5c-1.2-0.6-2.4-0.9-3.7-0.9c-1.3,0-2.5,0.3-3.7,0.9
			c-1.2,0.6-2.3,1.4-3.2,2.5c-0.9,1-1.7,2.2-2.3,3.6c-0.6,1.4-0.9,2.8-0.9,4.4v34.1c0,0.8-0.4,1.3-1.3,1.3h-8.8
			c-0.8,0-1.3-0.4-1.3-1.3V26.2c0-0.8,0.4-1.3,1.3-1.3h7.5c0.8,0,1.3,0.4,1.3,1.3v1.6c0,0.9,0.3,1.4,0.9,1.4c0.4,0,1-0.2,1.7-0.7
			c0.7-0.5,1.5-0.9,2.5-1.5c1-0.5,2.1-1,3.3-1.5c1.3-0.5,2.6-0.7,4.1-0.7c3.8,0,7.1,1,9.9,2.9c1.4,0.9,2.5,1.7,3.2,2.4
			c0.7,0.7,1.2,1,1.4,1c0.3,0,0.9-0.4,1.6-1.1c0.7-0.7,1.8-1.5,3.2-2.5c2.8-1.8,6.4-2.8,10.8-2.8c3.1,0,5.9,0.5,8.6,1.6
			c2.6,1.1,4.9,2.5,6.8,4.4c1.9,1.9,3.3,4.2,4.4,6.8c1,2.6,1.6,5.5,1.6,8.6V80.5z"/>
		<path id="Fill-16" d="M338.5,80.5c0,0.8-0.4,1.3-1.3,1.3h-8.8c-0.8,0-1.3-0.4-1.3-1.3V26.2c0-0.8,0.4-1.3,1.3-1.3h8.8
			c0.8,0,1.3,0.4,1.3,1.3V80.5z"/>
		<path id="Fill-18" d="M396.7,80.5c0,0.8-0.4,1.3-1.3,1.3h-8.8c-0.8,0-1.3-0.4-1.3-1.3V46.4c0-1.5-0.3-3-0.9-4.4
			c-0.6-1.4-1.4-2.6-2.4-3.7c-1-1-2.2-1.9-3.6-2.5c-1.4-0.6-2.9-0.9-4.4-0.9c-3.2,0-5.8,1.1-8,3.3c-2.2,2.2-3.3,4.9-3.3,8v34.1
			c0,0.8-0.4,1.3-1.3,1.3h-8.8c-0.8,0-1.2-0.4-1.2-1.3V26.2c0-0.8,0.4-1.3,1.2-1.3h7.5c0.8,0,1.3,0.4,1.3,1.3v1.5
			c0,0.9,0.3,1.4,0.9,1.4c0.4,0,1-0.2,1.6-0.6c0.7-0.4,1.5-0.9,2.5-1.5c1-0.5,2.2-1,3.6-1.5c1.4-0.4,3-0.6,4.8-0.6
			c3.2,0,6.1,0.5,8.7,1.6c2.6,1.1,4.9,2.5,6.8,4.4c1.9,1.9,3.4,4.1,4.5,6.7c1.1,2.6,1.6,5.5,1.6,8.7V80.5z"/>
		<path id="Fill-20" d="M434.9,81.6c0,0.6-0.2,0.9-0.5,1.1c-0.3,0.1-1,0.2-1.9,0.2c-2.6,0-5.1-0.5-7.5-1.6c-2.4-1.1-4.6-2.5-6.4-4.4
			c-1.9-1.8-3.4-4.1-4.5-6.7c-1.1-2.6-1.7-5.5-1.7-8.7V36.3c0-0.8-0.4-1.3-1.2-1.3h-6.9c-0.8,0-1.3-0.4-1.3-1.3l0.3-4.4L417.6,14
			l0.9-0.4h3.9c0.8,0,1.3,0.4,1.3,1.3v8.8c0,0.8,0.4,1.3,1.3,1.3h8.8c0.8,0,1.3,0.4,1.3,1.3v7.6c0,0.8-0.4,1.3-1.3,1.3h-8.8
			c-0.8,0-1.3,0.4-1.3,1.3v25.2c0,2.5,0.9,5,2.8,7.3c0.6,0.7,1.5,1.3,2.8,1.8c1.3,0.5,2.8,1.2,4.8,2.1c0.7,0.3,1,0.7,1,1.3V81.6z"/>
		<g id="Group-24" transform="translate(79.000000, 0.118000)">
			<g id="Clip-23">
			</g>
			<defs>
				<filter id="Adobe_OpacityMaskFilter_1_" filterUnits="userSpaceOnUse" x="0.3" y="0.9" width="13.8" height="13.9">
					<feColorMatrix  type="matrix" values="1 0 0 0 0  0 1 0 0 0  0 0 1 0 0  0 0 0 1 0"/>
				</filter>
			</defs>
			<mask maskUnits="userSpaceOnUse" x="0.3" y="0.9" width="13.8" height="13.9" id="mask-4">
				<g class="st3">
					<polygon id="path-3" class="st1" points="0.3,0.9 14.1,0.9 14.1,14.8 0.3,14.8 					"/>
				</g>
			</mask>
			<path id="Fill-22" class="st4" d="M14.1,7.8c0,1.9-0.7,3.6-2,4.9c-1.3,1.3-3,2-4.9,2c-1.9,0-3.6-0.6-4.9-2c-1.3-1.3-2-3-2-5
				c0-1.9,0.7-3.6,2-4.9c1.3-1.3,3-2,4.9-2c1.9,0,3.5,0.7,4.9,2C13.4,4.2,14.1,5.9,14.1,7.8"/>
		</g>
		<g id="Group-27" transform="translate(325.000000, 0.118000)">
			<g id="Clip-26">
			</g>
			<defs>
				<filter id="Adobe_OpacityMaskFilter_2_" filterUnits="userSpaceOnUse" x="1" y="0.9" width="13.8" height="13.9">
					<feColorMatrix  type="matrix" values="1 0 0 0 0  0 1 0 0 0  0 0 1 0 0  0 0 0 1 0"/>
				</filter>
			</defs>
			<mask maskUnits="userSpaceOnUse" x="1" y="0.9" width="13.8" height="13.9" id="mask-6">
				<g class="st5">
					<polygon id="path-5" class="st1" points="1,0.9 14.8,0.9 14.8,14.8 1,14.8 					"/>
				</g>
			</mask>
			<path id="Fill-25" class="st6" d="M14.8,7.8c0,1.9-0.7,3.6-2,4.9c-1.3,1.3-3,2-4.9,2c-1.9,0-3.5-0.6-4.9-2c-1.3-1.3-2-3-2-5
				c0-1.9,0.7-3.6,2-4.9c1.3-1.3,3-2,4.9-2c1.9,0,3.5,0.7,4.9,2C14.1,4.2,14.8,5.9,14.8,7.8"/>
		</g>
		<g id="Group-30" transform="translate(444.000000, 69.118000)">
			<g id="Clip-29">
			</g>
			<defs>
				<filter id="Adobe_OpacityMaskFilter_3_" filterUnits="userSpaceOnUse" x="0.9" y="0" width="13.8" height="13.9">
					<feColorMatrix  type="matrix" values="1 0 0 0 0  0 1 0 0 0  0 0 1 0 0  0 0 0 1 0"/>
				</filter>
			</defs>
			<mask maskUnits="userSpaceOnUse" x="0.9" y="0" width="13.8" height="13.9" id="mask-8">
				<g class="st7">
					<polygon id="path-7" class="st1" points="14.7,0 14.7,13.9 0.9,13.9 0.9,0 					"/>
				</g>
			</mask>
			<path id="Fill-28" class="st8" d="M14.7,6.9c0,1.9-0.6,3.6-1.9,4.9c-1.3,1.3-2.9,2-4.9,2c-2,0-3.7-0.7-4.9-2
				c-1.3-1.3-1.9-3-1.9-5c0-1.9,0.7-3.6,2-4.9c1.3-1.3,3-2,4.9-2c1.9,0,3.6,0.7,4.9,2C14,3.4,14.7,5,14.7,6.9"/>
		</g>
	</g>
</g>
</svg>
